<?xml version="1.0" encoding="utf-8"?>
<!-- Generator: Adobe Illustrator 22.1.0, SVG Export Plug-In . SVG Version: 6.00 Build 0)  -->
<svg version="1.1" id="Layer_1" xmlns="http://www.w3.org/2000/svg" xmlns:xlink="http://www.w3.org/1999/xlink" x="0px" y="0px"
	 viewBox="0 0 434 490.9" style="enable-background:new 0 0 434 490.9;" xml:space="preserve">
<style type="text/css">
	.st0{fill:#000105;}
	.st1{fill:none;stroke:#000105;stroke-width:11.0355;stroke-miterlimit:10;}
	.st2{fill:#E9CB3A;}
	.st3{fill:none;}
	.st4{fill:#F4D431;}
	.st5{fill:#FFFFFF;}
	.st6{fill:none;stroke:#000105;stroke-width:13.7944;stroke-miterlimit:10;}
	.st7{fill:#808080;}
	.st8{fill:none;stroke:#000105;stroke-width:26;stroke-miterlimit:10;}
	.st9{fill:none;stroke:#000105;stroke-width:0.25;stroke-miterlimit:10;}
	.st10{fill:#FFFFFF;stroke:#000105;stroke-width:0.25;stroke-miterlimit:10;}
	.st11{fill:#6B6B6B;}
	.st12{fill:#222220;}
	.st13{fill:none;stroke:#C63550;stroke-width:0.25;stroke-miterlimit:10;}
	.st14{opacity:0.32;fill:#C63550;}
</style>
<g>
	<g>
		<path class="st5" d="M88.3,130.4L24,66.8C18.5,72,13.1,77.3,7.9,82.8l64.4,63.7L88.3,130.4z"/>
		<path class="st5" d="M119.4,5.6c-7,2.9-14,5.9-20.8,9.2L135,98.4c6.8-3.4,13.7-6.4,20.8-9.1L119.4,5.6z"/>
	</g>
	<path class="st5" d="M232.4,485.3c-106.8,0-193.7-86.8-193.7-193.5c0-106.7,86.9-193.5,193.7-193.5s193.7,86.8,193.7,193.5
		C426.1,398.5,339.2,485.3,232.4,485.3z M232.4,121.1c-94.2,0-170.9,76.6-170.9,170.7s76.7,170.7,170.9,170.7S403.4,386,403.4,291.8
		S326.7,121.1,232.4,121.1z"/>
	<circle class="st2" cx="276.5" cy="159.8" r="0"/>
	<circle class="st3" cx="232.9" cy="291.8" r="57.1"/>
	<path class="st3" d="M232.9,234.7c-31.5,0-57.1,25.6-57.1,57.1c0,31.5,25.6,57.1,57.1,57.1s57.1-25.6,57.1-57.1
		C290,260.3,264.4,234.7,232.9,234.7z"/>
</g>
<g>
	<path class="st4" d="M335.1,199.7c-6.1,7.1-15.1,11.6-25.1,11.6c-18.3,0-33.1-14.8-33.1-33.1c0-5.6,1.4-10.8,3.8-15.5
		c-14.9-5.5-31-8.6-47.8-8.6c-76,0-137.6,61.6-137.6,137.6c0,76,61.6,137.6,137.6,137.6c76,0,137.6-61.6,137.6-137.6
		C370.5,256.4,357.1,224.1,335.1,199.7z M232.9,348.9c-31.5,0-57.1-25.6-57.1-57.1c0-31.5,25.6-57.1,57.1-57.1s57.1,25.6,57.1,57.1
		C290,323.4,264.4,348.9,232.9,348.9z"/>
	<path class="st3" d="M232.9,234.7c-31.5,0-57.1,25.6-57.1,57.1c0,31.5,25.6,57.1,57.1,57.1s57.1-25.6,57.1-57.1
		C290,260.3,264.4,234.7,232.9,234.7z"/>
</g>
</svg>
