<?xml version="1.0" encoding="utf-8"?>
<!-- Generator: Adobe Illustrator 22.1.0, SVG Export Plug-In . SVG Version: 6.00 Build 0)  -->
<svg version="1.1" id="Layer_1" xmlns="http://www.w3.org/2000/svg" xmlns:xlink="http://www.w3.org/1999/xlink" x="0px" y="0px"
	 viewBox="0 0 892 323.1" style="enable-background:new 0 0 892 323.1;" xml:space="preserve">
<style type="text/css">
	.st0{fill:#000105;}
	.st1{fill:none;stroke:#000105;stroke-width:11.0355;stroke-miterlimit:10;}
	.st2{fill:#E9CB3A;}
	.st3{fill:none;}
	.st4{fill:#F4D431;}
	.st5{fill:#FFFFFF;}
	.st6{fill:none;stroke:#000105;stroke-width:13.7944;stroke-miterlimit:10;}
	.st7{fill:#808080;}
	.st8{fill:none;stroke:#000105;stroke-width:26;stroke-miterlimit:10;}
	.st9{fill:none;stroke:#000105;stroke-width:0.25;stroke-miterlimit:10;}
	.st10{fill:#FFFFFF;stroke:#000105;stroke-width:0.25;stroke-miterlimit:10;}
	.st11{fill:#6B6B6B;}
	.st12{fill:#222220;}
	.st13{fill:none;stroke:#C63550;stroke-width:0.25;stroke-miterlimit:10;}
	.st14{opacity:0.32;fill:#C63550;}
</style>
<g>
	<g>
		<g>
			<path class="st5" d="M401.7,181.2h-17.3l-25.5-44.8v44.8h-17.4v-72h17.4l25.5,44.8v-44.8h17.3V181.2z"/>
			<path class="st5" d="M473.7,146.6c0,7-1.3,13.2-3.9,18.7c-2.6,5.4-6.3,9.6-11.1,12.5c-4.8,2.9-10.3,4.4-16.4,4.4
				c-6.1,0-11.6-1.4-16.3-4.2c-4.8-2.8-8.5-6.9-11.1-12.1c-2.7-5.2-4-11.3-4.2-18.1v-4.1c0-7.1,1.3-13.3,3.9-18.7
				c2.6-5.4,6.3-9.6,11.1-12.5c4.8-2.9,10.3-4.4,16.5-4.4c6.1,0,11.5,1.5,16.3,4.4c4.8,2.9,8.5,7,11.2,12.4c2.7,5.4,4,11.5,4,18.4
				V146.6z M456,143.6c0-7.2-1.2-12.6-3.6-16.3c-2.4-3.7-5.8-5.6-10.3-5.6c-8.7,0-13.3,6.5-13.8,19.6l0,5.3c0,7.1,1.2,12.5,3.5,16.3
				c2.3,3.8,5.8,5.7,10.4,5.7c4.4,0,7.8-1.9,10.1-5.6s3.6-9.1,3.6-16.1V143.6z"/>
			<path class="st5" d="M519.8,162c0-2.5-0.9-4.5-2.7-5.9c-1.8-1.4-5-2.9-9.5-4.4c-4.5-1.5-8.2-3-11.1-4.4c-9.3-4.6-14-10.9-14-18.9
				c0-4,1.2-7.5,3.5-10.6c2.3-3.1,5.6-5.4,9.9-7.1c4.3-1.7,9-2.5,14.3-2.5c5.2,0,9.8,0.9,13.9,2.8c4.1,1.8,7.3,4.5,9.6,7.9
				c2.3,3.4,3.4,7.3,3.4,11.7h-17.3c0-2.9-0.9-5.2-2.7-6.8c-1.8-1.6-4.2-2.4-7.3-2.4c-3.1,0-5.6,0.7-7.3,2.1
				c-1.8,1.4-2.7,3.1-2.7,5.2c0,1.8,1,3.5,3,5s5.5,3.1,10.4,4.7c5,1.6,9.1,3.3,12.3,5.2c7.8,4.5,11.7,10.7,11.7,18.6
				c0,6.3-2.4,11.2-7.1,14.8c-4.8,3.6-11.3,5.4-19.5,5.4c-5.8,0-11.1-1-15.9-3.1c-4.7-2.1-8.3-5-10.7-8.6c-2.4-3.6-3.6-7.8-3.6-12.6
				h17.4c0,3.9,1,6.7,3,8.5c2,1.8,5.2,2.7,9.7,2.7c2.9,0,5.1-0.6,6.8-1.9C519,166,519.8,164.2,519.8,162z"/>
			<path class="st5" d="M563.4,167.8h30.2v13.4h-47.6v-72h17.4V167.8z"/>
			<path class="st5" d="M645.7,150.6h-27.3v17.2h32.3v13.4H601v-72h49.7v13.4h-32.4v15.2h27.3V150.6z"/>
			<path class="st5" d="M702.4,150.6h-27.3v17.2h32.3v13.4h-49.6v-72h49.7v13.4h-32.4v15.2h27.3V150.6z"/>
			<path class="st5" d="M731.8,156.7v24.4h-17.4v-72h28.8c5.5,0,10.4,1,14.6,3c4.2,2,7.5,4.9,9.8,8.7c2.3,3.7,3.5,8,3.5,12.7
				c0,7-2.5,12.6-7.5,16.8c-5,4.2-11.9,6.3-20.7,6.3H731.8z M731.8,143.3h11.4c3.4,0,5.9-0.8,7.7-2.5s2.6-4.1,2.6-7.1
				c0-3.4-0.9-6.1-2.7-8.1c-1.8-2-4.3-3-7.4-3.1h-11.6V143.3z"/>
			<path class="st5" d="M348.4,203.1h9.7v51.2c0,6.7-2,12-6.1,16c-4.1,4-9.4,5.9-15.9,5.9c-6.6,0-11.9-1.8-15.8-5.3
				c-3.9-3.5-5.8-8.6-5.6-15.3l0.1-0.3h9.4c0,4.5,1,7.8,3.1,10c2.1,2.2,5,3.3,8.9,3.3c3.6,0,6.5-1.3,8.8-3.9
				c2.3-2.6,3.4-6.1,3.4-10.4V203.1z"/>
			<path class="st5" d="M410.9,256.6h-27.1l-6.4,18.6h-9.9l26-72h8.4l25.4,72h-9.9L410.9,256.6z M386.6,248.5h21.5l-10.5-30.9h-0.3
				L386.6,248.5z"/>
			<path class="st5" d="M455.4,256.3l1.6,6h0.3l1.6-6l18.6-53.1h10.5l-26.8,72h-8.4l-26.8-72h10.6L455.4,256.3z"/>
			<path class="st5" d="M531.1,256.6H504l-6.4,18.6h-9.9l26-72h8.4l25.4,72h-9.9L531.1,256.6z M506.8,248.5h21.5l-10.5-30.9h-0.3
				L506.8,248.5z"/>
			<path class="st5" d="M596.3,257c0-3.3-1.2-6-3.5-8.2c-2.3-2.2-6.5-4.1-12.4-5.6c-7.3-1.8-13-4.5-17.1-8c-4.1-3.5-6.2-8-6.2-13.3
				c0-5.6,2.2-10.3,6.6-14.1s10.2-5.6,17.2-5.6c7.6,0,13.6,2.2,18.1,6.5c4.5,4.3,6.7,9.3,6.6,15.1l-0.1,0.3h-9.3
				c0-4.1-1.4-7.5-4.3-10.1c-2.9-2.7-6.5-4-11-4c-4.6,0-8,1.1-10.5,3.3s-3.6,5.1-3.6,8.6c0,3.1,1.3,5.7,4,7.8
				c2.7,2.1,7,3.9,12.9,5.5c7.3,1.9,12.8,4.7,16.6,8.3c3.8,3.7,5.7,8.2,5.7,13.6c0,5.8-2.3,10.5-6.9,14c-4.6,3.5-10.5,5.3-17.9,5.3
				c-7,0-13.1-1.9-18.4-5.8c-5.3-3.9-7.9-9.1-7.7-15.6l0.1-0.3h9.3c0,4.5,1.7,8,5.1,10.5c3.4,2.5,7.3,3.7,11.6,3.7
				c4.6,0,8.3-1,11-3.1C595,263.4,596.3,260.6,596.3,257z"/>
			<path class="st5" d="M671.3,252.1l0.1,0.3c0.1,6.8-2.2,12.4-7.1,17c-4.9,4.6-11.3,6.8-19.3,6.8c-8.1,0-14.8-2.9-19.9-8.7
				c-5.1-5.8-7.7-13.1-7.7-22v-12.8c0-8.9,2.6-16.2,7.7-22c5.1-5.8,11.8-8.7,19.9-8.7c8.1,0,14.6,2.2,19.4,6.5
				c4.8,4.3,7.2,10.1,7,17.2l-0.1,0.3H662c0-5-1.5-9-4.5-12c-3-2.9-7.2-4.4-12.6-4.4c-5.4,0-9.8,2.2-13,6.6
				c-3.2,4.4-4.8,9.8-4.8,16.3v12.9c0,6.6,1.6,12,4.8,16.4c3.2,4.4,7.6,6.6,13,6.6c5.4,0,9.6-1.5,12.6-4.4c3-2.9,4.5-7,4.5-12.1
				H671.3z"/>
			<path class="st5" d="M693.8,244v31.2h-9.7v-72h24.6c7.9,0,13.9,1.7,18.1,5.2c4.2,3.5,6.2,8.6,6.2,15.2c0,3.7-1,6.9-2.9,9.6
				c-1.9,2.7-4.7,4.9-8.4,6.5c4,1.3,6.8,3.4,8.5,6.3c1.7,2.9,2.6,6.5,2.6,10.7v6.8c0,2.2,0.2,4.3,0.7,6c0.5,1.8,1.4,3.2,2.6,4.4v1.2
				h-10c-1.3-1.1-2.1-2.8-2.5-4.9c-0.4-2.2-0.5-4.4-0.5-6.7v-6.6c0-3.9-1.1-7-3.4-9.4s-5.3-3.6-9.2-3.6H693.8z M693.8,236.3h13.9
				c5.5,0,9.5-1,11.9-3.1s3.6-5.3,3.6-9.6c0-4.1-1.2-7.2-3.5-9.4c-2.4-2.2-6-3.3-11-3.3h-14.9V236.3z"/>
			<path class="st5" d="M759.3,275.2h-9.8v-72h9.8V275.2z"/>
			<path class="st5" d="M787,246.3v28.9h-9.7v-72h27.6c7.7,0,13.7,2,17.9,5.9c4.3,4,6.4,9.2,6.4,15.6c0,6.5-2.1,11.8-6.4,15.7
				c-4.3,3.9-10.3,5.9-17.9,5.9H787z M787,238.7h17.8c4.9,0,8.5-1.3,10.9-3.9c2.4-2.6,3.6-5.9,3.6-9.9s-1.2-7.3-3.6-10
				s-6.1-4-10.9-4H787V238.7z"/>
			<path class="st5" d="M892,210.8h-23.8v64.4h-9.7v-64.4h-23.5v-7.7h57V210.8z"/>
		</g>
	</g>
	<g>
		<g>
			<g>
				<path class="st5" d="M60.9,82.9L18.2,40.6c-3.7,3.5-7.2,7-10.7,10.7l42.7,42.3L60.9,82.9z"/>
				<path class="st5" d="M81.5,0c-4.7,1.9-9.3,3.9-13.8,6.1l24.2,55.5c4.5-2.2,9.1-4.2,13.8-6.1L81.5,0z"/>
			</g>
			<path class="st5" d="M156.6,318.6C85.7,318.6,28,260.9,28,190.1c0-70.9,57.7-128.5,128.6-128.5s128.6,57.7,128.6,128.5
				C285.3,260.9,227.6,318.6,156.6,318.6z M156.6,76.7C94,76.7,43.1,127.5,43.1,190.1S94,303.5,156.6,303.5s113.5-50.9,113.5-113.4
				S219.2,76.7,156.6,76.7z"/>
			<circle class="st2" cx="185.9" cy="102.4" r="0"/>
			<circle class="st3" cx="156.9" cy="190.1" r="37.9"/>
			<path class="st3" d="M156.9,152.1c-21,0-37.9,17-37.9,37.9c0,21,17,37.9,37.9,37.9s37.9-17,37.9-37.9
				C194.9,169.1,177.9,152.1,156.9,152.1z"/>
		</g>
		<g>
			<path class="st4" d="M224.9,128.9c-4,4.7-10,7.7-16.7,7.7c-12.1,0-22-9.8-22-22c0-3.7,0.9-7.2,2.6-10.3
				c-9.9-3.7-20.6-5.7-31.8-5.7c-50.5,0-91.4,40.9-91.4,91.4c0,50.5,40.9,91.4,91.4,91.4c50.5,0,91.4-40.9,91.4-91.4
				C248.4,166.6,239.5,145.1,224.9,128.9z M156.9,228c-21,0-37.9-17-37.9-37.9c0-21,17-37.9,37.9-37.9s37.9,17,37.9,37.9
				C194.9,211,177.9,228,156.9,228z"/>
			<path class="st3" d="M156.9,152.1c-21,0-37.9,17-37.9,37.9c0,21,17,37.9,37.9,37.9s37.9-17,37.9-37.9
				C194.9,169.1,177.9,152.1,156.9,152.1z"/>
		</g>
	</g>
</g>
</svg>
