<?xml version="1.0" encoding="utf-8"?>
<!-- Generator: Adobe Illustrator 18.0.0, SVG Export Plug-In . SVG Version: 6.00 Build 0)  -->
<!DOCTYPE svg PUBLIC "-//W3C//DTD SVG 1.1//EN" "http://www.w3.org/Graphics/SVG/1.1/DTD/svg11.dtd">
<svg version="1.1" id="Layer_1" xmlns="http://www.w3.org/2000/svg" xmlns:xlink="http://www.w3.org/1999/xlink" x="0px" y="0px"
	 viewBox="0 0 353.5 410.8" enable-background="new 0 0 353.5 410.8" xml:space="preserve">
<g>
	<g>
		<path fill="#010202" d="M102.5,144.7L27.7,70c-3.3,3.2-6.6,6.4-9.8,9.8l74.7,74.7C95.8,151.1,99.1,147.8,102.5,144.7z"/>
		<path fill="#010202" d="M107.6,18.3c-4.3,1.7-8.5,3.6-12.6,5.6l42.5,96.9c4.1-2,8.3-3.9,12.6-5.5L107.6,18.3z"/>
	</g>
	<circle fill="none" stroke="#010202" stroke-width="13.7944" stroke-miterlimit="10" cx="204.7" cy="256.7" r="122.4"/>
	<g>
		<path fill="#FFD703" d="M273.5,196.7c-3.2,4.4-8.4,7.4-14.3,7.4c-9.7,0-17.6-7.9-17.6-17.6c0-4.4,1.6-8.4,4.3-11.5
			c-12.3-6.3-26.3-9.9-41.1-9.9c-50,0-90.6,40.6-90.6,90.6s40.6,90.6,90.6,90.6s90.6-40.6,90.6-90.6
			C295.3,233.2,287.1,212.6,273.5,196.7z M204.7,291.7c-19.9,0-36-16.1-36-36c0-19.9,16.1-36,36-36s36,16.1,36,36
			S224.6,291.7,204.7,291.7z"/>
	</g>
	<path fill="none" stroke="#010202" stroke-width="11.0355" stroke-miterlimit="10" d="M204.7,256.7"/>
</g>
</svg>
