<?xml version="1.0" encoding="utf-8"?>
<!-- Generator: Adobe Illustrator 22.1.0, SVG Export Plug-In . SVG Version: 6.00 Build 0)  -->
<svg version="1.1" id="Layer_1" xmlns="http://www.w3.org/2000/svg" xmlns:xlink="http://www.w3.org/1999/xlink" x="0px" y="0px"
	 viewBox="0 0 960 410.8" style="enable-background:new 0 0 960 410.8;" xml:space="preserve">
<style type="text/css">
	.st0{fill:#FFFFFF;}
	.st1{fill:none;stroke:#FFFFFF;stroke-width:13.7944;stroke-miterlimit:10;}
	.st2{fill:#F5D532;}
	.st3{fill:none;stroke:#070809;stroke-width:11.0355;stroke-miterlimit:10;}
	.st4{fill:#070809;}
	.st5{fill:none;stroke:#070809;stroke-width:13.7944;stroke-miterlimit:10;}
	.st6{fill:#808080;}
</style>
<g>
	<g>
		<g>
			<path class="st0" d="M449.4,248h-17.3l-25.5-44.8V248h-17.4v-72h17.4l25.5,44.8V176h17.3V248z"/>
			<path class="st0" d="M521.4,213.5c0,7-1.3,13.2-3.9,18.7c-2.6,5.4-6.3,9.6-11.1,12.5c-4.8,2.9-10.3,4.4-16.4,4.4
				c-6.1,0-11.6-1.4-16.3-4.2c-4.8-2.8-8.5-6.9-11.1-12.1c-2.7-5.2-4-11.3-4.2-18.1v-4.1c0-7.1,1.3-13.3,3.9-18.7
				c2.6-5.4,6.3-9.6,11.1-12.5c4.8-2.9,10.3-4.4,16.5-4.4c6.1,0,11.5,1.5,16.3,4.4c4.8,2.9,8.5,7,11.2,12.4c2.7,5.4,4,11.5,4,18.4
				V213.5z M503.8,210.4c0-7.2-1.2-12.6-3.6-16.3c-2.4-3.7-5.8-5.6-10.3-5.6c-8.7,0-13.3,6.5-13.8,19.6l0,5.3
				c0,7.1,1.2,12.5,3.5,16.3c2.3,3.8,5.8,5.7,10.4,5.7c4.4,0,7.8-1.9,10.1-5.6s3.6-9.1,3.6-16.1V210.4z"/>
			<path class="st0" d="M567.5,228.9c0-2.5-0.9-4.5-2.7-5.9c-1.8-1.4-5-2.9-9.5-4.4c-4.5-1.5-8.2-3-11.1-4.4
				c-9.3-4.6-14-10.9-14-18.9c0-4,1.2-7.5,3.5-10.6c2.3-3.1,5.6-5.4,9.9-7.1c4.3-1.7,9-2.5,14.3-2.5c5.2,0,9.8,0.9,13.9,2.8
				c4.1,1.8,7.3,4.5,9.6,7.9c2.3,3.4,3.4,7.3,3.4,11.7h-17.3c0-2.9-0.9-5.2-2.7-6.8c-1.8-1.6-4.2-2.4-7.3-2.4
				c-3.1,0-5.6,0.7-7.3,2.1c-1.8,1.4-2.7,3.1-2.7,5.2c0,1.8,1,3.5,3,5s5.5,3.1,10.4,4.7c5,1.6,9.1,3.3,12.3,5.2
				c7.8,4.5,11.7,10.7,11.7,18.6c0,6.3-2.4,11.2-7.1,14.8c-4.8,3.6-11.3,5.4-19.5,5.4c-5.8,0-11.1-1-15.9-3.1
				c-4.7-2.1-8.3-5-10.7-8.6c-2.4-3.6-3.6-7.8-3.6-12.6h17.4c0,3.9,1,6.7,3,8.5c2,1.8,5.2,2.7,9.7,2.7c2.9,0,5.1-0.6,6.8-1.9
				C566.7,232.8,567.5,231.1,567.5,228.9z"/>
			<path class="st0" d="M611.2,234.6h30.2V248h-47.6v-72h17.4V234.6z"/>
			<path class="st0" d="M693.4,217.4h-27.3v17.2h32.3V248h-49.6v-72h49.7v13.4h-32.4v15.2h27.3V217.4z"/>
			<path class="st0" d="M750.1,217.4h-27.3v17.2h32.3V248h-49.6v-72h49.7v13.4h-32.4v15.2h27.3V217.4z"/>
			<path class="st0" d="M779.5,223.6V248h-17.4v-72h28.8c5.5,0,10.4,1,14.6,3c4.2,2,7.5,4.9,9.8,8.7c2.3,3.7,3.5,8,3.5,12.7
				c0,7-2.5,12.6-7.5,16.8c-5,4.2-11.9,6.3-20.7,6.3H779.5z M779.5,210.2h11.4c3.4,0,5.9-0.8,7.7-2.5s2.6-4.1,2.6-7.1
				c0-3.4-0.9-6.1-2.7-8.1c-1.8-2-4.3-3-7.4-3.1h-11.6V210.2z"/>
			<path class="st0" d="M396.1,270h9.7v51.2c0,6.7-2,12-6.1,16c-4.1,4-9.4,5.9-15.9,5.9c-6.6,0-11.9-1.8-15.8-5.3
				c-3.9-3.5-5.8-8.6-5.6-15.3l0.1-0.3h9.4c0,4.5,1,7.8,3.1,10c2.1,2.2,5,3.3,8.9,3.3c3.6,0,6.5-1.3,8.8-3.9
				c2.3-2.6,3.4-6.1,3.4-10.4V270z"/>
			<path class="st0" d="M458.7,323.5h-27.1l-6.4,18.6h-9.9l26-72h8.4l25.4,72H465L458.7,323.5z M434.4,315.3h21.5l-10.5-30.9h-0.3
				L434.4,315.3z"/>
			<path class="st0" d="M503.1,323.1l1.6,6h0.3l1.6-6l18.6-53.1h10.5l-26.8,72h-8.4l-26.8-72h10.6L503.1,323.1z"/>
			<path class="st0" d="M578.8,323.5h-27.1l-6.4,18.6h-9.9l26-72h8.4l25.4,72h-9.9L578.8,323.5z M554.5,315.3h21.5l-10.5-30.9h-0.3
				L554.5,315.3z"/>
			<path class="st0" d="M644.1,323.9c0-3.3-1.2-6-3.5-8.2c-2.3-2.2-6.5-4.1-12.4-5.6c-7.3-1.8-13-4.5-17.1-8
				c-4.1-3.5-6.2-8-6.2-13.3c0-5.6,2.2-10.3,6.6-14.1s10.2-5.6,17.2-5.6c7.6,0,13.6,2.2,18.1,6.5c4.5,4.3,6.7,9.3,6.6,15.1l-0.1,0.3
				H644c0-4.1-1.4-7.5-4.3-10.1c-2.9-2.7-6.5-4-11-4c-4.6,0-8,1.1-10.5,3.3s-3.6,5.1-3.6,8.6c0,3.1,1.3,5.7,4,7.8
				c2.7,2.1,7,3.9,12.9,5.5c7.3,1.9,12.8,4.7,16.6,8.3c3.8,3.7,5.7,8.2,5.7,13.6c0,5.8-2.3,10.5-6.9,14c-4.6,3.5-10.5,5.3-17.9,5.3
				c-7,0-13.1-1.9-18.4-5.8c-5.3-3.9-7.9-9.1-7.7-15.6l0.1-0.3h9.3c0,4.5,1.7,8,5.1,10.5c3.4,2.5,7.3,3.7,11.6,3.7
				c4.6,0,8.3-1,11-3.1C642.8,330.2,644.1,327.4,644.1,323.9z"/>
			<path class="st0" d="M719.1,319l0.1,0.3c0.1,6.8-2.2,12.4-7.1,17c-4.9,4.6-11.3,6.8-19.3,6.8c-8.1,0-14.8-2.9-19.9-8.7
				c-5.1-5.8-7.7-13.1-7.7-22v-12.8c0-8.9,2.6-16.2,7.7-22c5.1-5.8,11.8-8.7,19.9-8.7c8.1,0,14.6,2.2,19.4,6.5
				c4.8,4.3,7.2,10.1,7,17.2l-0.1,0.3h-9.4c0-5-1.5-9-4.5-12c-3-2.9-7.2-4.4-12.6-4.4c-5.4,0-9.8,2.2-13,6.6
				c-3.2,4.4-4.8,9.8-4.8,16.3v12.9c0,6.6,1.6,12,4.8,16.4c3.2,4.4,7.6,6.6,13,6.6c5.4,0,9.6-1.5,12.6-4.4c3-2.9,4.5-7,4.5-12.1
				H719.1z"/>
			<path class="st0" d="M741.6,310.8V342h-9.7v-72h24.6c7.9,0,13.9,1.7,18.1,5.2c4.2,3.5,6.2,8.6,6.2,15.2c0,3.7-1,6.9-2.9,9.6
				c-1.9,2.7-4.7,4.9-8.4,6.5c4,1.3,6.8,3.4,8.5,6.3c1.7,2.9,2.6,6.5,2.6,10.7v6.8c0,2.2,0.2,4.3,0.7,6c0.5,1.8,1.4,3.2,2.6,4.4v1.2
				h-10c-1.3-1.1-2.1-2.8-2.5-4.9c-0.4-2.2-0.5-4.4-0.5-6.7v-6.6c0-3.9-1.1-7-3.4-9.4s-5.3-3.6-9.2-3.6H741.6z M741.6,303.1h13.9
				c5.5,0,9.5-1,11.9-3.1s3.6-5.3,3.6-9.6c0-4.1-1.2-7.2-3.5-9.4c-2.4-2.2-6-3.3-11-3.3h-14.9V303.1z"/>
			<path class="st0" d="M807.1,342h-9.8v-72h9.8V342z"/>
			<path class="st0" d="M834.7,313.1V342H825v-72h27.6c7.7,0,13.7,2,17.9,5.9c4.3,4,6.4,9.2,6.4,15.6c0,6.5-2.1,11.8-6.4,15.7
				c-4.3,3.9-10.3,5.9-17.9,5.9H834.7z M834.7,305.5h17.8c4.9,0,8.5-1.3,10.9-3.9c2.4-2.6,3.6-5.9,3.6-9.9s-1.2-7.3-3.6-10
				s-6.1-4-10.9-4h-17.8V305.5z"/>
			<path class="st0" d="M939.8,277.6H916V342h-9.7v-64.4h-23.5V270h57V277.6z"/>
		</g>
	</g>
	<g>
		<path class="st0" d="M102.5,144.7L27.7,70c-3.3,3.2-6.6,6.4-9.8,9.8l74.7,74.7C95.8,151.1,99.1,147.8,102.5,144.7z"/>
		<path class="st0" d="M107.6,18.3c-4.3,1.7-8.5,3.6-12.6,5.6l42.5,96.9c4.1-2,8.3-3.9,12.6-5.5L107.6,18.3z"/>
	</g>
	<circle class="st1" cx="204.7" cy="256.7" r="122.4"/>
	<g>
		<path class="st2" d="M273.5,197.7c-3.2,4.4-8.4,7.4-14.3,7.4c-9.7,0-17.6-7.9-17.6-17.6c0-4.4,1.6-8.4,4.3-11.5
			c-12.3-6.3-26.3-9.9-41.1-9.9c-50,0-90.6,40.6-90.6,90.6s40.6,90.6,90.6,90.6s90.6-40.6,90.6-90.6
			C295.3,234.2,287.1,213.6,273.5,197.7z M204.7,292.7c-19.9,0-36-16.1-36-36c0-19.9,16.1-36,36-36s36,16.1,36,36
			S224.6,292.7,204.7,292.7z"/>
	</g>
</g>
</svg>
